<svg width="17" height="18" viewBox="0 0 17 18" fill="none" xmlns="http://www.w3.org/2000/svg">
<path d="M8.5 0.5C10.1412 0.5 11.4609 1.81246 11.4609 3.41797V4.33008L11.4502 4.82715L11.9473 4.84082C13.1442 4.8739 13.7154 5.00155 14.1309 5.33789C14.4124 5.56578 14.6162 5.88568 14.8018 6.43945C14.9918 7.00671 15.1448 7.75994 15.3604 8.82422L15.9141 11.5586C16.2236 13.087 16.4443 14.1796 16.4912 15.0166C16.5373 15.8391 16.4085 16.3181 16.1084 16.6797C15.8072 17.0425 15.3535 17.2627 14.5244 17.3799C13.6825 17.4989 12.5524 17.5 10.9746 17.5H6.02539C4.44758 17.5 3.3175 17.4989 2.47559 17.3799C1.64648 17.2627 1.19284 17.0425 0.891602 16.6797C0.59153 16.3181 0.462726 15.8391 0.508789 15.0166C0.555677 14.1796 0.776395 13.087 1.08594 11.5586L1.63965 8.82422C1.85519 7.75995 2.00822 7.00672 2.19824 6.43945C2.3838 5.88567 2.58766 5.56578 2.86914 5.33789C3.28465 5.00155 3.85579 4.8739 5.05273 4.84082L5.54785 4.82715L5.53906 4.33203V3.41797C5.53906 1.81246 6.85879 0.50001 8.5 0.5ZM5.73145 5.65234C4.95152 5.65234 4.30859 6.27809 4.30859 7.06348C4.30869 7.8488 4.95159 8.47461 5.73145 8.47461C6.5112 8.47451 7.1542 7.84874 7.1543 7.06348C7.1543 6.27815 6.51127 5.65245 5.73145 5.65234ZM11.2686 5.65234C10.4887 5.65246 9.8457 6.27816 9.8457 7.06348C9.8458 7.84873 10.4888 8.4745 11.2686 8.47461C12.0484 8.47461 12.6913 7.8488 12.6914 7.06348C12.6914 6.27809 12.0485 5.65234 11.2686 5.65234ZM8.5 0.867188C7.083 0.867197 5.92383 2.00339 5.92383 3.41797V4.8291H11.0762V3.41797C11.0762 2.00338 9.91701 0.867188 8.5 0.867188Z" stroke="#333333"/>
</svg>
